<svg width="518" height="65" viewBox="0 0 518 65" fill="none" xmlns="http://www.w3.org/2000/svg">
<g clip-path="url(#clip0_1620_17)">
<path d="M28.4028 1.59979C27.3362 2.53312 20.1362 15.4665 12.6695 30.3998C0.536174 54.3998 -0.930493 57.7331 0.40284 60.6664C2.53617 65.1998 8.13617 66.3998 11.6028 62.9331C13.0695 61.4664 18.4028 52.5331 23.3362 43.1998C28.2695 33.7331 32.8028 25.9998 33.3362 25.9998C34.0028 25.9998 39.0695 33.7331 44.8028 43.3331C56.2695 62.3998 58.9362 65.1998 64.0028 62.9331C70.8028 59.8664 69.8695 56.5331 54.8028 30.5331C47.0695 17.1998 40.6695 5.73312 40.6695 5.19979C40.6695 3.59979 35.0695 -0.000211787 32.6695 -0.000211787C31.4695 -0.000211787 29.6028 0.799788 28.4028 1.59979Z" fill="white"/>
<path d="M135.07 2.93304C132.536 5.06637 113.603 58.2664 114.536 60.7997C115.47 63.0664 119.87 63.1997 121.736 60.933C122.403 60.133 126.136 50.533 129.87 39.733C133.603 28.933 137.07 19.0664 137.603 17.8664C138.136 16.533 141.336 23.5997 146.136 36.533C150.403 47.9997 154.536 58.533 155.336 59.9997C157.07 63.1997 161.736 63.5997 162.803 60.6664C163.736 58.3997 145.203 7.19971 142.27 3.59971C139.87 0.933041 137.87 0.666375 135.07 2.93304Z" fill="white"/>
<path d="M315.603 2.93324C314.403 4.13324 314.003 12.3999 314.003 32.1332C314.003 54.9332 314.403 59.9999 316.003 61.3332C317.069 62.2666 318.936 62.6666 320.003 62.1332C321.603 61.5999 322.003 57.9999 322.003 41.1999C322.003 28.9332 322.536 21.3332 323.336 21.5999C324.003 21.7332 330.803 30.9332 338.269 41.9999C348.003 56.2666 352.936 62.1332 354.936 62.3999C359.203 63.0666 359.469 60.5332 359.069 30.1332C358.669 6.26657 358.403 3.46657 356.269 2.13324C354.269 0.933237 353.469 1.1999 351.869 3.1999C350.403 5.1999 350.003 10.3999 350.003 25.1999V44.3999L336.536 24.5332C320.803 1.1999 319.069 -0.53343 315.603 2.93324Z" fill="white"/>
<path d="M449.07 2.2667C447.736 2.6667 447.336 10 447.336 32C447.336 57.6 447.603 61.2 449.47 61.8667C454.803 63.8667 455.336 60.9334 455.336 32.1334C455.336 2.40004 454.803 -0.133296 449.07 2.2667Z" fill="white"/>
<path d="M492.936 2.7999C485.07 5.1999 481.07 16.1332 484.936 24.5332C486.27 27.7332 488.403 28.9332 502.27 35.3332C510.536 39.0666 511.47 47.8666 504.136 52.7999C500.936 54.7999 500.136 54.7999 494.136 52.7999C486.403 50.2666 483.87 50.1332 482.67 51.9999C480.936 54.7999 483.603 58.5332 488.803 60.5332C504.27 66.7999 518.003 58.7999 518.003 43.7332C518.003 35.5999 513.87 30.7999 502.003 24.9332C491.736 19.7332 489.736 17.3332 493.203 13.4666C496.27 10.1332 502.803 9.73324 506.936 12.6666C508.536 13.7332 510.67 14.2666 511.87 13.8666C514.936 12.6666 514.67 5.73324 511.336 3.9999C507.47 1.86657 497.87 1.33324 492.936 2.7999Z" fill="white"/>
<path d="M190.003 5.20001C188.403 8.40001 188.136 57.2 189.869 59.7333C190.669 61.2 194.269 61.4667 205.069 61.0667C221.336 60.5333 224.403 59.0667 230.003 49.2C234.536 41.2 234.803 24.6667 230.403 16.6667C224.403 5.46667 218.803 2.66667 202.669 2.66667C192.936 2.66667 191.203 3.06667 190.003 5.20001ZM219.469 15.7333C226.269 23.3333 226.136 40.8 219.336 48.4C216.136 52 214.669 52.5333 206.803 53.0667L198.003 53.6V32V10.2667L206.936 11.0667C214.803 11.6 216.403 12.2667 219.469 15.7333Z" fill="white"/>
<path d="M260.936 4.26654C259.07 6.13321 258.67 56.7999 260.403 59.7332C261.203 60.9332 265.07 61.3332 274.803 61.0665C287.87 60.6665 288.003 60.6665 288.003 57.3332C288.003 54.1332 287.603 53.9999 278.403 53.5999L268.67 53.1999V44.6665V35.9999H275.736C284.27 35.9999 288.803 33.4665 286.536 29.7332C285.47 27.8665 283.07 27.1999 276.803 26.9332L268.67 26.5332V18.6665V10.7999L277.736 10.3999C286.27 9.99988 286.67 9.86654 286.67 6.66654C286.67 3.33321 286.536 3.33321 274.67 2.93321C266.403 2.66654 262.136 3.06654 260.936 4.26654Z" fill="white"/>
<path d="M385.203 4.66639C383.603 8.79972 385.736 10.6664 392.003 10.6664H398.003V34.3997C398.003 53.0664 398.403 58.6664 399.869 60.7997C401.469 62.7997 402.269 63.0664 404.269 61.8664C406.403 60.5331 406.669 57.8664 407.069 35.5997L407.336 10.7997L413.736 10.3997C419.469 9.99972 420.003 9.73306 420.003 6.66639V3.33306L402.936 2.93306C388.669 2.66639 385.869 2.93306 385.203 4.66639Z" fill="white"/>
</g>
<defs>
<clipPath id="clip0_1620_17">
<rect width="518.003" height="64.9392" fill="white"/>
</clipPath>
</defs>
</svg>
