<svg width="613" height="514" viewBox="0 0 613 514" fill="none" xmlns="http://www.w3.org/2000/svg">
<g clip-path="url(#clip0_1620_49)">
<path d="M294.085 1.62798C290.085 2.82798 283.152 5.36131 278.752 7.49464C244.619 23.4946 214.485 70.428 202.485 126.295C198.752 143.628 199.152 186.028 203.152 204.428C213.685 252.961 239.152 295.761 269.152 315.361C282.485 324.028 294.219 327.761 310.752 328.561C326.219 329.361 336.485 327.361 349.819 320.828C383.552 304.428 413.019 258.295 425.019 203.228C429.285 183.495 429.285 145.228 424.885 124.961C412.219 65.3613 377.152 15.4946 339.685 3.49464C327.819 -0.238689 304.619 -1.17202 294.085 1.62798ZM332.085 5.62798C356.352 11.8946 376.485 29.4947 390.752 57.228C415.685 105.228 423.285 161.895 411.952 212.828C398.219 274.161 369.819 313.361 332.085 322.961C310.219 328.561 283.685 322.561 265.019 307.761C230.885 280.695 205.685 204.695 211.285 145.761C217.285 82.828 244.885 29.0946 280.485 11.0946C294.752 3.89464 316.219 1.62798 332.085 5.62798Z" fill="white"/>
<path d="M259.552 65.8946C259.419 90.4279 260.752 99.2279 262.485 84.9613C265.152 62.6946 283.685 47.7613 299.819 54.8279C308.485 58.6946 308.485 58.8279 301.552 66.2946C292.352 76.0279 286.885 89.2279 279.285 119.228C272.352 146.961 269.152 154.428 261.419 160.561L256.885 164.161L261.419 168.028C269.019 174.295 272.219 181.628 279.285 209.228C286.885 239.228 292.485 252.695 301.285 262.028C304.619 265.628 307.419 268.961 307.419 269.495C307.419 271.228 296.085 275.628 291.419 275.628C277.419 275.628 264.619 261.495 262.485 243.628C260.885 229.495 259.419 238.028 259.552 261.895C259.552 281.228 259.952 286.028 261.019 282.961C264.352 273.628 267.952 272.561 280.219 277.095C289.419 280.561 300.619 280.028 308.352 275.628L313.552 272.828L320.752 276.161C329.685 280.295 337.552 280.561 348.085 276.961C352.352 275.495 357.152 274.295 358.752 274.295C361.952 274.295 366.085 278.028 366.085 281.095C366.085 282.161 366.752 283.895 367.419 284.961C368.219 286.295 368.752 278.561 368.752 261.895C368.752 237.628 367.285 229.761 365.419 243.761C363.152 259.628 351.819 273.628 339.685 275.228C334.085 276.028 323.019 272.961 321.285 270.161C320.885 269.361 323.019 266.161 326.085 262.828C334.885 253.228 341.419 237.895 348.219 210.161C355.019 182.961 357.285 177.495 364.885 169.628L370.085 164.161L365.285 159.628C358.085 152.695 355.685 146.695 348.619 119.495C339.952 85.4946 334.619 73.3613 324.219 63.7613C322.352 61.8946 320.752 60.0279 320.752 59.3613C320.752 56.6946 333.152 52.6946 339.152 53.3613C351.552 54.6946 363.152 68.5613 365.419 84.8279C367.419 99.0946 368.752 90.9613 368.619 65.8946C368.485 44.6946 368.219 41.0946 366.885 45.0946C363.819 55.0946 360.885 56.0279 348.085 51.6279C337.552 48.0279 329.685 48.2946 320.752 52.4279L313.552 55.7613L308.352 52.8279C300.619 48.5613 288.619 48.0279 279.685 51.4946C267.819 56.1613 263.819 54.8279 261.019 44.9613C259.952 41.4946 259.685 46.5613 259.552 65.8946ZM323.552 80.9613C332.219 104.028 335.952 129.361 335.952 164.961C335.952 188.961 335.419 196.428 332.885 210.961C329.152 232.561 323.285 250.828 317.952 258.161L313.952 263.761L311.552 260.695C301.819 248.161 293.952 216.028 291.685 179.495C289.285 140.561 297.952 87.8946 309.685 70.1613L313.285 64.6946L317.019 69.0946C319.152 71.4946 322.085 76.8279 323.552 80.9613Z" fill="white"/>
<path d="M114.752 342.961C92.4851 347.761 65.0185 364.561 42.7518 386.961C25.8185 404.028 10.0851 429.761 3.28512 451.628C-0.981548 465.361 -1.11488 484.561 3.01845 492.295C10.2185 505.895 21.5518 511.761 42.0851 512.695C63.9518 513.628 80.8851 508.028 102.485 492.428L112.618 485.228V492.428C112.618 506.295 121.152 513.895 135.285 512.561C144.085 511.761 152.618 508.161 165.152 500.161L174.085 494.295V499.095C174.085 502.828 175.152 504.961 178.618 508.428C182.618 512.428 183.952 512.961 190.485 512.961C194.485 512.961 200.085 512.028 202.885 510.828C211.152 507.361 223.818 497.761 232.752 488.028L241.152 478.961L231.552 494.428C226.352 502.961 222.085 510.295 222.085 510.828C222.085 511.361 226.352 511.628 231.685 511.361L241.285 510.961L245.818 502.961C263.418 472.161 277.818 448.961 282.485 444.028C292.352 433.361 309.018 428.028 314.618 433.761C317.552 436.561 317.285 438.161 314.085 437.361C306.885 435.495 300.752 442.028 302.618 449.628C305.018 459.361 317.285 456.161 332.485 441.761C340.752 434.028 342.085 433.228 339.818 436.961C308.752 489.361 303.952 500.428 309.818 507.628C312.218 510.695 313.418 510.961 322.352 510.961C337.018 510.828 344.352 506.428 367.952 483.628L381.018 470.961L375.552 482.028C372.485 488.161 369.552 496.028 369.152 499.495C368.618 504.828 368.885 506.295 371.685 509.495C374.352 512.695 375.818 513.228 381.685 513.228C392.218 513.228 399.418 508.961 416.618 492.428C425.018 484.295 431.418 478.828 430.885 480.295C430.352 481.761 429.552 486.295 429.152 490.295C428.618 496.428 429.018 498.295 431.685 502.161C436.618 509.495 441.152 512.028 449.952 512.695C462.618 513.628 480.352 507.095 496.085 495.895C506.352 488.428 527.818 469.761 536.218 460.561C545.018 451.095 545.152 450.828 525.818 483.228C517.818 496.695 511.018 508.561 510.618 509.628C509.952 511.228 511.285 511.628 518.352 511.628H526.885L541.018 487.895C548.752 474.961 557.818 460.695 561.018 456.295C570.752 443.228 589.818 430.295 599.285 430.295L604.085 430.428L599.952 432.161C593.552 434.961 591.952 442.828 596.752 447.628C603.018 453.895 612.752 448.161 612.752 438.295C612.752 423.895 596.352 424.295 576.085 439.495C565.685 447.228 565.418 447.228 570.085 438.828C572.485 434.561 575.152 430.161 575.818 429.228C576.752 428.028 575.018 427.628 567.818 427.628H558.485L554.485 433.895C534.352 466.161 489.418 503.495 466.752 506.828C459.685 507.761 452.085 505.628 449.418 501.895C447.018 498.561 446.752 488.561 448.885 482.428C450.085 478.961 451.018 478.295 454.618 478.295C457.018 478.295 463.552 477.095 469.018 475.761C501.018 467.495 522.618 444.428 511.018 430.828C508.352 427.761 506.485 427.095 499.552 426.561C480.085 425.095 456.485 440.161 438.085 465.628C427.952 479.628 404.218 502.695 397.818 504.828C390.752 507.095 387.418 505.095 387.418 498.561C387.418 494.695 391.018 487.361 404.218 464.295C413.418 448.161 421.818 433.361 422.885 431.228L424.885 427.628H417.018H409.285L404.752 435.228C380.352 475.761 337.952 512.961 326.752 503.628C322.218 499.895 324.485 494.295 343.818 460.961L362.885 428.295L373.152 427.895C385.552 427.495 386.885 424.961 374.752 424.961C369.952 424.961 366.085 424.695 366.085 424.295C366.085 423.895 370.352 416.161 375.418 407.095C380.618 398.028 384.752 390.161 384.752 389.761C384.752 389.228 381.018 388.961 376.618 389.228L368.352 389.628L360.218 402.695C349.685 419.761 336.618 436.028 327.685 443.228C323.818 446.428 320.085 448.961 319.552 448.961C318.885 448.961 318.752 446.295 319.018 443.095C319.685 437.895 319.285 436.695 316.218 433.628C312.885 430.295 311.818 430.028 304.752 430.561C298.885 430.961 295.152 432.161 290.085 435.361L283.285 439.628L286.885 433.628L290.352 427.628H281.818H273.418L265.818 440.028C249.552 466.561 225.152 494.961 212.085 502.428C205.018 506.428 197.152 507.495 194.352 504.695C191.952 502.295 192.485 494.828 195.418 488.828C197.018 485.895 205.152 471.761 213.552 457.495C221.952 443.228 229.285 430.561 229.685 429.495C230.352 427.761 229.018 427.495 221.952 427.895L213.418 428.295L209.418 435.628C205.952 442.028 205.418 442.561 205.018 439.628C203.818 429.895 199.285 425.628 188.352 424.161C181.152 423.095 167.685 426.428 159.418 431.228C143.818 440.295 125.952 458.561 116.618 474.828C110.485 485.761 89.9518 500.161 71.4185 506.428C59.2851 510.428 43.5518 510.561 35.8185 506.561C26.0851 501.495 20.6185 489.495 20.6185 472.961C20.4851 445.895 33.9518 417.095 61.4185 384.961C77.4185 366.161 98.8851 350.961 116.618 345.761C127.685 342.561 141.685 342.961 148.885 346.695C155.818 350.428 162.885 360.961 164.218 369.895L165.018 375.761L172.885 364.028C177.152 357.628 181.685 350.961 182.752 349.361L184.885 346.561L178.618 348.428C169.818 351.095 162.218 350.828 156.352 347.628C144.485 341.228 129.952 339.628 114.752 342.961ZM198.218 430.161C205.685 437.628 203.152 448.695 189.285 470.161C175.018 491.895 156.885 506.028 141.285 507.361C135.152 507.895 133.818 507.495 130.885 504.561C116.885 490.561 147.285 440.295 176.618 428.828C186.218 425.095 193.552 425.495 198.218 430.161ZM499.152 430.561C501.685 433.095 501.018 440.828 497.952 447.361C491.552 460.561 473.152 473.361 458.352 475.228L451.285 476.028L452.752 472.428C457.018 461.228 476.218 437.095 485.418 431.495C489.952 428.695 496.752 428.161 499.152 430.561Z" fill="white"/>
<path d="M423.418 396.295C422.485 397.361 421.818 399.761 421.818 401.628C421.818 406.161 424.352 408.961 428.752 408.961C432.885 408.961 436.752 405.361 436.752 401.361C436.752 395.495 427.152 391.895 423.418 396.295Z" fill="white"/>
</g>
<defs>
<clipPath id="clip0_1620_49">
<rect width="612.752" height="513.228" fill="white"/>
</clipPath>
</defs>
</svg>
