<svg width="229" height="17" viewBox="0 0 229 17" fill="none" xmlns="http://www.w3.org/2000/svg">
<g style="mix-blend-mode:difference">
<path d="M0.634399 1.10332L13.679 8.77376L0.634399 16.4442V1.10332Z" fill="white"/>
<path d="M45.9577 1.10332C46.6898 1.30696 47.2888 1.57848 47.6882 1.85C48.154 2.12152 48.5534 2.46092 48.8861 2.73244C49.2189 3.00396 49.4851 3.27548 49.6182 3.47912L49.8844 3.81852L47.8878 5.9228C47.8213 5.85492 47.7547 5.78704 47.6882 5.65128C47.6216 5.51552 47.4219 5.37976 47.2223 5.10824C46.9561 4.83672 46.6898 4.63308 46.3571 4.42944C46.0243 4.2258 45.6915 4.09004 45.1591 3.8864C44.6932 3.75064 44.1608 3.61488 43.6284 3.61488C42.2307 3.61488 41.0327 4.09004 40.101 5.04036C39.1692 5.99068 38.7034 7.21252 38.7034 8.638C38.7034 10.0635 39.1692 11.2853 40.101 12.2356C41.0327 13.186 42.2307 13.6611 43.6284 13.6611C44.1608 13.6611 44.6932 13.5932 45.2257 13.4575C45.6915 13.3217 46.1574 13.1181 46.4902 12.9144C46.823 12.7108 47.0892 12.5072 47.3554 12.3035C47.6216 12.0999 47.8213 11.8962 47.8878 11.7605L48.0875 11.5568L50.0175 13.6611C49.951 13.729 49.8844 13.8648 49.7513 14.0005C49.6182 14.1363 49.352 14.4078 48.9527 14.7472C48.5534 15.0866 48.154 15.426 47.6882 15.6975C47.2223 15.969 46.6233 16.2406 45.8912 16.4442C45.1591 16.6478 44.427 16.7836 43.6284 16.7836C41.3655 16.7836 39.3689 15.969 37.8382 14.4078C36.2408 12.8466 35.4422 10.9459 35.4422 8.77376C35.4422 6.6016 36.2408 4.70096 37.8382 3.13972C39.4354 1.57848 41.3655 0.763916 43.6949 0.763916C44.4936 0.763916 45.2257 0.899676 45.9577 1.10332Z" fill="white"/>
<path d="M73.0453 1.10332H79.7007C81.1649 1.10332 82.4294 1.57848 83.4277 2.59668C84.426 3.547 84.8919 4.76884 84.8919 6.19432C84.8919 6.80524 84.8253 7.34828 84.6257 7.89132C84.426 8.43436 84.2264 8.84164 83.9601 9.18104C83.6939 9.52044 83.4277 9.79196 83.1615 9.9956C82.8953 10.1992 82.6956 10.4029 82.496 10.4708L82.2297 10.6065L85.4243 16.4442H81.9635L79.1017 11.0817H76.3064V16.4442H73.0453V1.10332ZM81.0318 4.63308C80.6324 4.2258 80.1666 4.02216 79.5676 4.02216H76.2399V8.09496H79.5676C80.1666 8.09496 80.6324 7.89132 81.0318 7.55192C81.4311 7.14464 81.6308 6.66948 81.6308 6.12644C81.6308 5.51552 81.4311 5.04036 81.0318 4.63308Z" fill="white"/>
<path d="M109.45 3.13972C111.048 1.57848 112.978 0.763916 115.241 0.763916C117.503 0.763916 119.433 1.57848 121.031 3.13972C122.628 4.70096 123.427 6.6016 123.427 8.77376C123.427 10.9459 122.628 12.8466 121.031 14.4078C119.433 15.969 117.503 16.7836 115.241 16.7836C112.978 16.7836 111.048 15.969 109.45 14.4078C107.853 12.8466 107.054 10.9459 107.054 8.77376C107.121 6.53372 107.92 4.70096 109.45 3.13972ZM111.846 12.3714C112.778 13.3217 113.909 13.7969 115.241 13.7969C116.572 13.7969 117.703 13.3217 118.635 12.3714C119.567 11.4211 120.032 10.1992 120.032 8.77376C120.032 7.34828 119.567 6.19432 118.635 5.17612C117.703 4.2258 116.572 3.68276 115.241 3.68276C113.909 3.68276 112.778 4.15792 111.846 5.17612C110.915 6.12644 110.449 7.34828 110.449 8.77376C110.449 10.1992 110.915 11.3532 111.846 12.3714Z" fill="white"/>
<path d="M152.844 1.10332L155.972 11.6247L159.033 1.10332H162.494L157.569 16.4442H154.574L151.379 6.12644L148.185 16.4442H145.19L140.265 1.10332H143.726L146.854 11.6247L149.982 1.10332H152.844Z" fill="white"/>
<path d="M186.32 1.10332C188.517 1.10332 190.314 1.85 191.844 3.34336C193.309 4.83672 194.041 6.66948 194.041 8.77376C194.041 10.9459 193.309 12.7108 191.844 14.2042C190.38 15.6975 188.517 16.4442 186.32 16.4442H180.73V1.10332H186.32ZM183.924 4.02216V13.4575H186.254C187.518 13.4575 188.583 12.9823 189.448 12.0999C190.314 11.2174 190.78 10.0635 190.78 8.77376C190.78 7.48404 190.38 6.33008 189.515 5.44764C188.65 4.5652 187.585 4.09004 186.32 4.09004H183.924V4.02216Z" fill="white"/>
<path d="M228.915 1.10332L215.87 8.77376L228.915 16.4442V1.10332Z" fill="white"/>
</g>
</svg>
