<svg width="798" height="150" viewBox="0 0 798 150" fill="none" xmlns="http://www.w3.org/2000/svg">
<g clip-path="url(#clip0_1620_38)">
<path d="M29.4667 1.33349C17.8667 3.73349 9.33333 10.0002 3.73333 20.5335C0.8 25.8668 0.8 26.9335 0.4 87.6002L0 149.333H13.4667H26.8V128V106.667H40.8H54.8V128V149.333H68.1333H81.4667V128V106.667H115.467H149.467V95.3335V84.0002H115.333H81.2L81.7333 76.5335C82.8 64.5335 82 64.6668 118.133 64.2668L149.467 63.8668V53.2002V42.6668H113.2C77.7333 42.6668 76.6667 42.8002 70 45.8668C59.2 50.9335 54.8 59.2002 54.8 74.8002V84.0002H40.6667H26.6667L27.0667 59.4668C27.4667 37.0668 27.7333 34.5335 30.2667 31.0668C36.4 22.6668 36.6667 22.6668 95.8667 22.6668H149.467V11.3335V0.000154972L91.8667 0.133488C60.1333 0.266822 32 0.800155 29.4667 1.33349Z" fill="white"/>
<path d="M664.667 39.1999C645.733 43.4666 634.933 56.2666 634.8 74.5333C634.8 87.0666 637.067 92.9333 644.8 100.667C653.067 109.067 662.133 112.267 677.333 112.267C697.6 112.133 711.467 102.8 716.667 85.5999C717.6 82.7999 717.333 82.6666 708.267 82.6666C699.333 82.6666 698.8 82.7999 696.933 86.2666C695.867 88.3999 693.2 91.7333 690.933 93.8666C687.467 97.1999 685.333 97.8666 678.8 98.3999C669.2 99.0666 664.267 97.3333 658.8 91.1999C653.467 84.9333 651.467 77.4666 653.467 69.4666C657.867 51.0666 681.867 44.7999 694 58.7999C698.267 63.8666 698.667 63.9999 707.2 63.9999C717.333 63.9999 717.6 63.4666 712.933 55.4666C709.333 49.3333 700.533 42.5333 693.467 40.2666C685.467 37.7333 673.2 37.3333 664.667 39.1999Z" fill="white"/>
<path d="M192.133 75.3337V110.667H200.8H209.467V96.0003V81.3337H229.467H249.467V74.667V68.0003H229.467H209.467V61.3337V54.667H231.467H253.467V47.3337V40.0003H222.8H192.133V75.3337Z" fill="white"/>
<path d="M278.267 49.067C272.133 61.3337 249.467 109.2 249.467 110C249.467 110.4 253.6 110.667 258.667 110.667H267.867L270.933 103.334L274.133 96.0003H290.133H306.267L309.867 103.334L313.467 110.667H322.133C326.933 110.667 330.8 110.134 330.8 109.467C330.8 108.8 323.467 92.9337 314.533 74.1337L298.4 40.0003H290.667H282.8L278.267 49.067ZM293.333 70.1337C295.6 74.9337 297.467 79.467 297.467 80.1337C297.467 80.8003 293.6 81.3337 288.8 81.3337C284 81.3337 280.133 81.067 280.133 80.8003C280.133 80.5337 281.333 77.3337 282.933 73.7337C284.4 70.267 286.267 66.0003 286.933 64.267C287.6 62.667 288.267 61.3337 288.667 61.3337C288.933 61.3337 291.067 65.3337 293.333 70.1337Z" fill="white"/>
<path d="M338.8 75.2003V110.667H347.467H356.133V98.0003V85.3337H370C388 85.3337 388.8 86.0003 389.733 104L390.133 110L400 110.4C408.933 110.8 409.733 110.534 408.8 108.4C408.4 107.067 407.467 100.934 406.8 94.667C405.733 84.8003 405.067 82.9337 402 80.267L398.533 77.2003L402 74.5337C412.667 66.1337 411.6 49.467 399.867 43.067C396.133 41.067 391.333 40.667 367.2 40.267L338.8 39.867V75.2003ZM388 56.5337C391.467 59.7337 391.6 64.5337 388.133 68.0003C385.733 70.4003 383.733 70.667 370.8 70.667H356.133V62.9337C356.133 58.667 356.533 54.667 357.2 54.1337C357.733 53.6003 364.267 53.3337 371.6 53.6003C382.667 53.867 385.733 54.5337 388 56.5337Z" fill="white"/>
<path d="M421.467 75.3337V110.667H430.133H438.8V96.0003V81.3337H458.8H478.8V74.667V68.0003H458.8H438.8V61.3337V54.667H460.8H482.8V47.3337V40.0003H452.133H421.467V75.3337Z" fill="white"/>
<path d="M492.133 75.3337V110.667H524.133H556.133V103.334V96.0003H532.8H509.467V88.667V81.3337H530.133H550.8V74.667V68.0003H530.133H509.467V61.3337V54.667H532.8H556.133V47.3337V40.0003H524.133H492.133V75.3337Z" fill="white"/>
<path d="M565.467 47.3336V54.667H577.467H589.467L589.733 82.267L590.133 110L598.533 110.4L606.8 110.8V82.8003V54.8003L619.2 54.4003L631.467 54.0003V47.3336V40.667L598.533 40.267L565.467 40.0003V47.3336Z" fill="white"/>
<path d="M726.8 75.3336V110.667H735.467H744.133V96.0003V81.3336H762.133H780L780.4 95.6003L780.8 110L789.2 110.4L797.467 110.8V75.3336V40.0003H788.8H780.133V54.0003V68.0003H762.133H744.133V54.0003V40.0003H735.467H726.8V75.3336Z" fill="white"/>
</g>
<defs>
<clipPath id="clip0_1620_38">
<rect width="797.467" height="149.333" fill="white"/>
</clipPath>
</defs>
</svg>
