<svg width="1273" height="149" viewBox="0 0 1273 149" fill="none" xmlns="http://www.w3.org/2000/svg">
<g clip-path="url(#clip0_1620_27)">
<path d="M717.778 0.558347C696.328 3.85835 679.038 14.7583 667.06 32.5583C649.819 58.2583 650.12 90.9583 667.811 117.108C671.871 123.058 680.641 131.758 686.656 135.758C704.648 147.758 725.647 151.108 750.755 146.058C757.672 144.708 766.743 141.808 772.657 139.158C776.115 137.558 776.516 137.258 776.215 136.258C774.16 128.958 774.16 129.408 774.16 105.608C774.16 79.9583 774.06 80.9083 777.668 76.9083L779.523 74.8583H761.38H743.238L745.092 76.9083C748.651 80.8583 748.6 80.4583 748.751 101.958L748.901 121.358L747.748 121.858C742.887 123.958 730.057 125.008 722.89 123.908C717.478 123.058 710.561 120.708 705.75 118.008C700.087 114.858 692.519 107.358 689.011 101.458C686.255 96.8083 683.598 90.1583 682.345 84.7583C681.343 80.2583 681.193 68.9083 682.095 64.6083C686.656 43.4083 700.137 29.2083 719.532 25.1083C724.795 24.0083 736.823 23.9583 743.338 25.0583C752.71 26.5583 761.38 29.6583 768.748 34.0583C770.802 35.3083 772.607 36.3583 772.707 36.3583C772.807 36.3583 772.907 30.1083 772.907 22.4583V8.55835L768.046 6.75835C761.581 4.35835 754.965 2.60835 747.598 1.30835C740.03 -0.0416526 724.193 -0.441653 717.778 0.558347Z" fill="white"/>
<path d="M1189.48 0.40819C1180.51 1.60819 1169.08 5.55819 1161.47 10.0582C1143.22 20.9082 1131.2 37.2082 1126.43 57.6082C1125.13 63.1082 1125.03 64.4582 1124.98 73.6082C1124.98 81.2582 1125.18 84.6582 1125.88 88.0082C1131.95 117.858 1154.35 140.558 1184.02 146.958C1191.64 148.558 1205.57 148.558 1212.89 146.958C1227.82 143.608 1238.85 137.558 1249.77 126.608C1258.79 117.658 1264.56 108.458 1268.32 97.1582C1270.97 89.2582 1271.62 85.3582 1271.92 76.3582C1272.12 69.4082 1272.02 67.1582 1271.12 61.9082C1265.91 31.2582 1243.41 7.65819 1213.54 1.35819C1207.82 0.15819 1195.14 -0.34181 1189.48 0.40819ZM1210.18 24.8582C1223.86 28.3082 1235.39 38.0582 1241.75 51.4082C1253.93 77.1582 1243.81 107.758 1219.1 120.058C1204.12 127.508 1185.37 126.008 1171.69 116.158C1167.78 113.408 1162.12 107.558 1159.36 103.408C1147.93 86.5582 1147.68 62.9582 1158.76 45.8082C1165.88 34.7082 1177.6 26.5582 1189.63 24.4082C1191.29 24.1082 1193.19 23.7582 1193.89 23.6582C1196.7 23.1582 1206.32 23.8582 1210.18 24.8582Z" fill="white"/>
<path d="M1.60375 4.2084C2.50586 5.2084 3.70867 7.0584 4.31008 8.3084L5.36254 10.6084V74.1084V137.608L4.31008 139.908C3.70867 141.158 2.55598 142.958 1.65387 143.958C0.801875 144.958 0.100234 145.858 0.100234 146.058C0.100234 146.208 8.11898 146.358 17.8918 146.358C27.6647 146.358 35.6834 146.208 35.6834 146.058C35.6834 145.858 34.9818 144.958 34.1298 143.958C33.2277 142.958 32.075 141.158 31.4736 139.908C30.4713 137.658 30.4211 136.808 30.2708 111.458L30.1204 85.3084L52.8235 85.4584C77.832 85.6584 77.1805 85.5584 80.9393 88.8584L82.7936 90.4584V74.4084C82.7936 65.5584 82.5931 58.3584 82.3927 58.3584C82.1421 58.3584 81.4404 58.9584 80.7388 59.6584C77.9322 62.6584 78.6339 62.6084 53.3748 62.7584L30.1705 62.9084V43.6084V24.3084L53.3748 24.4584C78.7842 24.7084 78.9346 24.7084 84.6479 27.9084C86.1013 28.7084 87.4545 29.3584 87.6048 29.3584C87.9557 29.3584 87.4545 10.6084 87.0034 5.4584L86.7027 2.3584H43.3514H0L1.60375 4.2084Z" fill="white"/>
<path d="M124.842 4.6584C128.601 8.9584 128.4 4.7584 128.4 74.1084C128.4 143.358 128.601 139.258 124.892 143.508C123.789 144.758 122.887 145.908 122.887 146.058C122.887 146.208 142.583 146.358 166.69 146.358H210.492L211.745 140.958C215.303 125.708 216.757 118.858 216.556 118.608C216.406 118.508 214.852 119.158 213.048 120.108C206.533 123.508 206.583 123.508 178.417 123.758L152.958 123.908V104.158V84.3584H175.059C189.493 84.3584 197.863 84.5584 199.316 84.9084C200.519 85.2084 202.423 86.2584 203.526 87.2084L205.581 88.9584V73.1084V57.2584L203.977 58.6584C200.369 61.6584 200.87 61.6084 175.911 61.7584L152.958 61.9084V43.1584V24.3584H172.904C197.011 24.3584 199.817 24.6084 205.531 27.3584C207.836 28.4584 209.791 29.3084 209.891 29.2084C209.991 29.1084 209.841 24.5584 209.59 19.0584C209.339 13.6084 209.089 7.6084 209.089 5.7084V2.3584H165.938H122.787L124.842 4.6584Z" fill="white"/>
<path d="M253.593 4.5584C257.452 8.7084 257.251 4.4084 257.101 75.4084L256.951 138.608L255.848 140.608C255.297 141.708 254.094 143.258 253.242 144.058C252.39 144.908 251.688 145.708 251.688 145.958C251.688 146.158 259.707 146.358 269.53 146.358H287.372L285.618 144.408C281.458 139.808 281.258 138.408 281.258 110.158V87.2084L283.814 87.5084C290.229 88.2584 294.238 91.6084 302.608 103.158C311.879 115.908 326.012 136.958 328.468 141.708L330.974 146.358H347.713C356.935 146.358 364.452 146.208 364.452 146.058C364.452 145.858 362.598 143.758 360.292 141.408C355.18 136.058 351.522 131.208 339.895 114.108C328.468 97.3084 324.559 92.0584 320.249 87.6584C318.394 85.8084 316.841 84.2084 316.841 84.1584C316.841 84.0584 317.793 83.7084 318.996 83.3584C322.053 82.4584 327.666 79.5584 331.224 77.0584C337.99 72.2584 343.704 63.8584 345.758 55.6084C346.961 50.8584 346.911 38.5584 345.758 33.6584C343.704 25.3584 340.296 19.3084 334.683 13.9584C330.523 10.0084 325.962 7.3084 320.149 5.2584C312.481 2.5084 310.225 2.3584 279.604 2.3584H251.538L253.593 4.5584ZM306.567 25.0584C318.144 28.3084 323.105 35.9084 321.802 48.3584C320.8 57.3584 315.287 63.1084 305.615 65.2084C301.806 66.0584 288.625 66.3084 283.914 65.6084L281.258 65.2584V44.5084V23.7584L292.434 24.0084C300.803 24.1584 304.311 24.4084 306.567 25.0584Z" fill="white"/>
<path d="M387.105 4.2084C388.108 5.2584 389.31 6.9084 389.812 7.8584C390.714 9.5584 390.764 12.2084 390.764 74.1084V138.608L389.661 140.608C389.06 141.708 387.907 143.358 387.055 144.258C386.203 145.158 385.501 146.008 385.501 146.158C385.501 146.258 393.52 146.358 403.343 146.358H421.135L419.13 143.958C415.271 139.458 415.371 140.158 415.171 112.158L415.021 87.2084L417.526 87.5084C420.734 87.9084 424.142 89.4084 426.898 91.6084C429.555 93.7584 435.919 102.108 445.241 115.608C457.069 132.758 460.727 138.358 462.782 142.458L464.737 146.358H481.526C490.748 146.358 498.265 146.158 498.265 145.958C498.265 145.758 496.762 144.108 494.957 142.358C490.397 137.808 485.986 131.958 473.958 114.358C461.78 96.5084 458.622 92.3084 454.112 87.7084L450.804 84.2584L452.107 83.7584C456.668 81.9084 462.281 79.0084 464.987 77.1084C471.753 72.2584 476.915 64.9084 479.321 56.5584C480.975 50.9084 480.975 39.1584 479.321 32.6084C475.311 16.7084 463.333 6.1584 445.692 3.1084C442.334 2.5084 435.869 2.3584 413.417 2.3584H385.301L387.105 4.2084ZM441.833 25.5084C450.453 28.3084 454.363 32.8084 455.666 41.2584C456.317 45.4584 455.716 51.0084 454.212 54.5084C451.957 59.7084 446.494 63.7084 439.428 65.2084C435.619 66.0584 422.438 66.3084 417.727 65.6084L415.071 65.2584V44.5084V23.7584L426.497 23.9584C437.072 24.1584 438.125 24.2584 441.833 25.5084Z" fill="white"/>
<path d="M560.811 10.7584C539.311 64.4084 512.148 130.858 509.792 135.608C508.188 138.908 506.033 142.558 505.031 143.708C504.079 144.858 503.277 145.908 503.277 146.058C503.277 146.258 510.544 146.308 519.465 146.258L535.602 146.108L535.953 141.358C536.404 135.458 536.855 134.008 544.122 115.758L550.036 100.858H575.145H600.254L606.218 116.108C612.933 133.358 613.936 136.458 614.387 142.208L614.687 146.358H631.427H648.216L647.113 144.958C644.557 141.658 642.252 137.758 640.147 133.108C638.894 130.358 626.465 99.8584 612.532 65.3584L587.123 2.6084L575.646 2.5084L564.169 2.3584L560.811 10.7584ZM583.514 56.8584C587.975 68.2584 591.734 78.0084 591.834 78.4584C592.085 79.3084 591.082 79.3584 575.245 79.3584C564.67 79.3584 558.406 79.1584 558.406 78.8584C558.406 78.5084 571.787 43.8584 574.794 36.4584C574.944 36.1084 575.145 35.9084 575.245 35.9584C575.295 36.0584 579.054 45.4584 583.514 56.8584Z" fill="white"/>
<path d="M836.706 39.7084C795.66 141.158 797.014 137.908 792.954 143.258C791.852 144.708 790.949 146.008 790.949 146.108C790.949 146.258 798.216 146.308 807.137 146.258L823.275 146.108L823.576 141.358C824.027 135.358 824.328 134.258 831.645 116.008L837.659 100.858H862.818H888.026L894.341 117.008C900.656 133.208 902.21 138.458 902.21 143.608V146.358H918.748C927.87 146.358 935.287 146.258 935.287 146.108C935.287 146.008 934.285 144.458 933.032 142.658C928.972 136.858 930.476 140.408 894.141 50.9584L874.395 2.3584H863.118H851.792L836.706 39.7084ZM871.638 57.8584C876.048 69.1584 879.657 78.6584 879.657 78.9084C879.657 79.1584 872.791 79.3584 862.868 79.3584C850.088 79.3584 846.078 79.2084 846.078 78.7584C846.078 78.4084 849.837 68.6084 854.448 57.0084C859.911 43.1084 862.918 36.0584 863.218 36.5084C863.419 36.9084 867.228 46.5084 871.638 57.8584Z" fill="white"/>
<path d="M957.289 4.9584C959.694 9.2584 960.346 12.3584 960.346 19.1584C960.346 26.3084 956.537 129.158 956.086 133.608C955.635 138.058 954.532 141.008 952.227 143.608C951.124 144.858 950.322 146.008 950.423 146.158C950.573 146.258 958.391 146.308 967.863 146.258L985.104 146.108L983.55 144.358C981.545 142.058 980.944 140.858 980.393 138.008C979.942 135.558 982.848 56.3584 983.4 56.3584C983.55 56.3584 991.218 71.4084 1000.44 89.8584L1017.23 123.358H1025.75H1034.27L1051.06 89.8584C1060.28 71.4084 1067.95 56.3584 1068.1 56.3584C1068.65 56.3584 1071.56 135.558 1071.1 137.958C1070.55 140.858 1069.6 142.708 1067.9 144.308C1067.2 145.008 1066.59 145.708 1066.59 145.958C1066.59 146.158 1074.36 146.358 1083.88 146.358C1093.41 146.358 1101.18 146.208 1101.18 146.058C1101.18 145.908 1100.27 144.758 1099.17 143.508C1096.97 140.958 1095.81 137.908 1095.41 133.158C1094.96 128.558 1091.15 25.6584 1091.15 18.9084C1091.15 12.3584 1091.85 9.2084 1094.21 4.9584L1095.66 2.3584H1082.03H1068.35L1047.15 44.6084C1035.52 67.8584 1025.8 86.8084 1025.6 86.6584C1025.4 86.5584 1015.78 67.5084 1004.2 44.4084L983.149 2.3584H969.467H955.835L957.289 4.9584Z" fill="white"/>
</g>
<defs>
<clipPath id="clip0_1620_27">
<rect width="1272.01" height="148.328" fill="white"/>
</clipPath>
</defs>
</svg>
