<svg width="144" height="45" viewBox="0 0 144 45" fill="none" xmlns="http://www.w3.org/2000/svg">
<g style="mix-blend-mode:difference">
<path fill-rule="evenodd" clip-rule="evenodd" d="M0.623657 0.746643V36.2468C0.623657 37.8549 1.08467 39.4476 1.94523 40.8107C4.48081 44.8079 9.76712 46.0024 13.7779 43.4755L29.2834 33.7198C30.3284 33.0613 30.9584 31.9127 30.9584 30.6875V0.746643H0.623657ZM10.6584 39.2485C8.35334 39.2485 6.49391 38.2224 6.49391 35.0982C6.49391 31.9739 8.35334 30.9478 10.6584 30.9478C12.9635 30.9478 14.8229 31.9739 14.8229 35.0982C14.8229 38.2224 12.9635 39.2485 10.6584 39.2485ZM25.1804 28.0073L13.194 20.3805V28.0073H6.43244V6.27536L18.4188 13.9175V6.27536H25.165V28.0073H25.1804Z" fill="white"/>
<path d="M40.8856 24.3317V16.0004C40.8856 14.5301 41.2544 13.3662 42.0074 12.5545C42.7604 11.7275 43.7132 11.314 44.8964 11.314C46.0797 11.314 46.971 11.6816 47.5396 12.4167C48.1082 13.1518 48.3848 14.2238 48.3848 15.6022V24.3317H52.5493V15.2193C52.5493 12.7842 51.9961 10.9464 50.8896 9.6906C49.7832 8.43477 48.2311 7.80686 46.2334 7.80686C40.7319 7.80686 41.2237 13.3049 40.7319 14.2545V8.18973H36.7211V24.3317H40.8856ZM100.479 24.3317V16.0004C100.479 14.5301 100.848 13.3662 101.601 12.5545C102.354 11.7428 103.307 11.314 104.49 11.314C105.674 11.314 106.565 11.6816 107.133 12.4167C107.702 13.1518 107.979 14.2238 107.979 15.6022V24.3317H112.143V15.2193C112.143 12.7842 111.59 10.9464 110.483 9.6906C109.377 8.43477 107.825 7.80686 105.827 7.80686C100.326 7.80686 100.818 13.3049 100.326 14.2545V8.18973H96.315V24.3317H100.479ZM62.6301 24.7299C63.9364 24.7299 65.1043 24.4849 66.1339 24.0101C67.1635 23.5354 68.0394 22.8768 68.7463 22.0345C69.4532 21.1922 69.9603 20.2733 70.2676 19.2472H66.0263C65.7497 19.8598 65.3194 20.3498 64.7355 20.7327C64.1669 21.1156 63.4446 21.2994 62.5994 21.2994C61.4622 21.2994 60.5095 20.9471 59.7104 20.2273C58.9113 19.5075 58.481 18.5274 58.3888 17.2562H70.6672C70.6825 16.9805 70.6979 16.7049 70.7133 16.4445C70.7286 16.1842 70.7286 15.9391 70.7286 15.6941C70.7286 14.2238 70.3906 12.8761 69.699 11.6662C69.0075 10.4564 68.0701 9.50682 66.8408 8.81765C65.6267 8.12847 64.2283 7.77623 62.6301 7.77623C60.9398 7.77623 59.4645 8.14379 58.2198 8.86359C56.975 9.5834 55.9915 10.6095 55.2846 11.9113C54.5778 13.213 54.2243 14.6986 54.2243 16.3679C54.2243 18.0373 54.5778 19.4769 55.3 20.7327C56.0223 21.9885 57.0058 22.9687 58.2659 23.6579C59.526 24.3471 60.9705 24.6993 62.5994 24.6993L62.6301 24.7299ZM66.5027 14.668H58.4503C58.6654 13.4887 59.1725 12.6158 59.9563 12.0491C60.74 11.4671 61.6466 11.1915 62.6609 11.1915C63.6751 11.1915 64.6125 11.5131 65.3348 12.141C66.057 12.7689 66.4412 13.6112 66.5027 14.6833V14.668ZM81.0246 24.3471V20.794H79.0115C78.1817 20.794 77.5978 20.6408 77.2751 20.3498C76.937 20.0589 76.7679 19.5228 76.7679 18.7418V11.6662H81.1322V8.17442H76.7679V3.85559H72.6034V18.6958C72.6034 20.8093 73.1105 22.2642 74.1402 23.0912C75.1544 23.9182 76.5221 24.3317 78.2124 24.3317H81.04L81.0246 24.3471ZM87.11 24.3471V0.884478H82.9455V24.3317H87.11V24.3471ZM91.8585 5.69339C92.6115 5.69339 93.2415 5.46366 93.7333 5.00421C94.225 4.54476 94.4709 3.97811 94.4709 3.27362C94.4709 2.56913 94.225 2.00247 93.7333 1.55834C93.2415 1.1142 92.6268 0.884478 91.8585 0.884478C91.0901 0.884478 90.4754 1.1142 89.9837 1.55834C89.4919 2.00247 89.2461 2.56913 89.2461 3.27362C89.2461 3.97811 89.4919 4.54476 89.9837 5.00421C90.4754 5.46366 91.0901 5.69339 91.8585 5.69339ZM93.9484 24.3471V8.17442H89.7839V24.3317H93.9484V24.3471ZM118.782 24.3471V16.2454L125.328 24.3471H130.538L122.854 15.5562L129.462 8.18973H124.514L118.782 14.7292V0.884478H114.617V24.3317H118.782V24.3471ZM137.253 24.7452C138.636 24.7452 139.85 24.5155 140.864 24.0561C141.879 23.5966 142.662 22.9687 143.216 22.1723C143.753 21.3759 144.015 20.4724 143.999 19.4769C143.999 18.3283 143.723 17.44 143.154 16.8274C142.585 16.2148 141.832 15.74 140.895 15.4337C139.958 15.1121 138.913 14.8364 137.776 14.5761C136.731 14.331 135.901 14.0707 135.271 13.795C134.641 13.5194 134.333 13.1365 134.333 12.6617C134.333 12.1869 134.548 11.8194 134.963 11.5284C135.394 11.2221 135.993 11.0689 136.777 11.0689C138.344 11.0689 139.235 11.6662 139.481 12.8608H143.431C143.216 11.2987 142.539 10.0735 141.387 9.18521C140.25 8.29694 138.713 7.8528 136.807 7.8528C134.748 7.8528 133.135 8.34288 131.997 9.32304C130.86 10.3032 130.292 11.4978 130.292 12.9374C130.292 13.7184 130.476 14.377 130.845 14.913C131.214 15.449 131.69 15.8779 132.289 16.2148C132.889 16.5517 133.55 16.8274 134.256 17.0418C134.979 17.2562 135.686 17.44 136.377 17.5931C137.468 17.8382 138.313 18.0832 138.913 18.3283C139.527 18.5733 139.819 19.0481 139.819 19.7372C139.819 20.212 139.604 20.6408 139.189 21.0084C138.759 21.3759 138.098 21.5597 137.192 21.5597C136.285 21.5597 135.532 21.33 134.963 20.8859C134.395 20.4417 134.041 19.9057 133.903 19.2778H129.692C129.815 20.3652 130.215 21.3147 130.86 22.1417C131.506 22.9687 132.382 23.6119 133.473 24.0867C134.564 24.5461 135.824 24.7912 137.253 24.7912V24.7452Z" fill="white"/>
</g>
</svg>
