<svg width="2243" height="1333" viewBox="0 0 2243 1333" fill="none" xmlns="http://www.w3.org/2000/svg">
<path d="M2243 1333H0V0H2243V1333ZM878.873 646.344C874.974 646.344 871.493 647.022 868.43 648.38C865.367 649.737 862.956 651.627 861.198 654.046C859.458 656.465 858.597 659.293 858.614 662.53C858.597 666.481 859.893 669.622 862.504 671.954C865.115 674.286 868.674 676.001 873.182 677.098L879.003 678.56C880.952 679.029 882.597 679.552 883.938 680.126C885.295 680.7 886.321 681.396 887.018 682.214C887.731 683.032 888.088 684.042 888.088 685.242C888.088 686.53 887.696 687.671 886.913 688.663C886.13 689.655 885.025 690.429 883.598 690.986C882.188 691.543 880.526 691.821 878.611 691.821C876.662 691.821 874.913 691.525 873.364 690.934C871.833 690.325 870.606 689.428 869.684 688.245C868.779 687.044 868.264 685.547 868.143 683.755H857.204C857.291 687.601 858.223 690.83 859.998 693.44C861.791 696.033 864.279 697.992 867.464 699.314C870.666 700.637 874.426 701.298 878.742 701.298C883.093 701.298 886.809 700.645 889.89 699.34C892.988 698.017 895.354 696.164 896.99 693.779C898.644 691.378 899.48 688.541 899.497 685.269C899.48 683.041 899.07 681.066 898.27 679.343C897.486 677.62 896.381 676.123 894.954 674.853C893.527 673.582 891.839 672.512 889.89 671.642C887.94 670.771 885.8 670.075 883.468 669.553L878.664 668.404C877.498 668.143 876.401 667.829 875.374 667.464C874.347 667.081 873.442 666.637 872.659 666.133C871.876 665.611 871.258 664.993 870.806 664.279C870.371 663.566 870.17 662.73 870.205 661.773C870.205 660.625 870.536 659.597 871.197 658.692C871.876 657.787 872.851 657.083 874.121 656.578C875.392 656.056 876.949 655.795 878.794 655.795C881.509 655.795 883.658 656.378 885.242 657.544C886.826 658.71 887.723 660.346 887.932 662.452H898.766C898.713 659.267 897.86 656.465 896.207 654.046C894.554 651.627 892.239 649.737 889.263 648.38C886.304 647.023 882.841 646.344 878.873 646.344ZM1048.35 646.344C1043.65 646.344 1039.42 647.423 1035.66 649.581C1031.9 651.722 1028.92 654.838 1026.73 658.928C1024.54 663.018 1023.44 667.977 1023.44 673.808C1023.44 679.621 1024.52 684.573 1026.68 688.663C1028.85 692.753 1031.81 695.877 1035.55 698.035C1039.31 700.193 1043.58 701.272 1048.35 701.272C1051.78 701.272 1054.85 700.758 1057.56 699.731C1060.29 698.687 1062.64 697.278 1064.61 695.503C1066.6 693.71 1068.17 691.682 1069.34 689.42C1070.52 687.14 1071.26 684.772 1071.56 682.318L1060.12 682.267C1059.86 683.694 1059.39 684.964 1058.71 686.078C1058.05 687.192 1057.21 688.141 1056.21 688.924C1055.2 689.69 1054.04 690.273 1052.73 690.673C1051.44 691.073 1050.04 691.273 1048.53 691.273C1045.83 691.273 1043.46 690.612 1041.4 689.289C1039.35 687.966 1037.75 686.008 1036.6 683.415C1035.47 680.822 1034.9 677.619 1034.9 673.808C1034.9 670.101 1035.47 666.951 1036.6 664.357C1037.73 661.747 1039.32 659.763 1041.38 658.405C1043.43 657.03 1045.84 656.343 1048.61 656.343C1050.14 656.343 1051.56 656.56 1052.86 656.995C1054.19 657.43 1055.35 658.057 1056.36 658.875C1057.37 659.693 1058.2 660.685 1058.84 661.852C1059.49 663 1059.91 664.314 1060.12 665.793H1071.56C1071.19 662.695 1070.35 659.946 1069.05 657.544C1067.76 655.142 1066.09 653.114 1064.04 651.461C1061.98 649.79 1059.62 648.52 1056.96 647.649C1054.32 646.779 1051.44 646.344 1048.35 646.344ZM834.646 647.075V700.541H845.951V647.075H834.646ZM925.115 647.075L906.657 700.541H918.771L922.737 688.35H942.042L946 700.541H958.113L939.683 647.075H925.115ZM983.784 647.075L965.327 700.541H977.44L981.406 688.35H1000.71L1004.67 700.541H1016.78L998.352 647.075H983.784ZM1101.13 647.075L1119.59 700.541H1134.15L1152.59 647.075H1140.05L1127.11 687.696H1126.61L1113.69 647.075H1101.13ZM1162.7 647.075V700.541H1174V647.075H1162.7ZM1202.54 647.075L1184.08 700.541H1196.19L1200.16 688.35H1219.46L1223.42 700.541H1235.54L1217.1 647.075H1202.54ZM1245.65 647.075V700.541H1256.95V666.89H1257.34L1280.6 700.541H1290.37V647.075H1279.11V680.7H1278.64L1255.57 647.075H1245.65ZM1303.38 647.075V700.541H1314.69V666.89H1315.08L1338.34 700.541H1348.1V647.075H1336.85V680.7H1336.38L1313.3 647.075H1303.38ZM1376.68 647.075L1358.22 700.541H1370.33L1374.3 688.35H1393.6L1397.56 700.541H1409.68L1391.24 647.075H1376.68ZM1384.17 659.293L1390.74 679.525H1377.17L1383.75 659.293H1384.17ZM1210.03 659.293L1216.6 679.525H1203.03L1209.61 659.293H1210.03ZM991.276 659.293L997.846 679.525H984.276L990.858 659.293H991.276ZM932.607 659.293L939.177 679.525H925.607L932.189 659.293H932.607ZM1133.48 616.063C1132.61 616.063 1131.82 616.262 1131.13 616.657C1130.44 617.05 1129.89 617.621 1129.49 618.371C1129.09 619.121 1128.89 620.03 1128.89 621.099C1128.89 622.164 1129.09 623.072 1129.49 623.822C1129.89 624.572 1130.44 625.144 1131.13 625.54C1131.82 625.936 1132.61 626.134 1133.48 626.134C1134.34 626.134 1135.12 625.937 1135.81 625.545C1136.51 625.149 1137.06 624.577 1137.46 623.827C1137.86 623.077 1138.07 622.168 1138.07 621.099C1138.07 620.03 1137.86 619.121 1137.46 618.371C1137.06 617.621 1136.51 617.05 1135.81 616.657C1135.12 616.262 1134.34 616.064 1133.48 616.063ZM1068.55 626H1072.03C1073.02 626 1073.88 625.804 1074.59 625.411C1075.31 625.019 1075.86 624.456 1076.24 623.722C1076.63 622.988 1076.82 622.111 1076.82 621.09C1076.82 620.072 1076.63 619.197 1076.24 618.467C1075.86 617.736 1075.31 617.175 1074.6 616.786C1073.89 616.394 1073.04 616.198 1072.06 616.198H1068.55V626ZM1081.73 626H1088.35V624.291H1083.8V621.951H1087.99V620.242H1083.8V617.906H1088.33V616.198H1081.73V626ZM1096.2 626H1098.87L1102.25 616.198H1099.96L1097.58 623.646H1097.49L1095.12 616.198H1092.82L1096.2 626ZM1106.8 626H1113.43V624.291H1108.87V621.951H1113.07V620.242H1108.87V617.906H1113.41V616.198H1106.8V626ZM1118.42 626H1124.7V624.291H1120.5V616.198H1118.42V626ZM1142.97 626H1145.04V622.822H1146.79C1147.54 622.822 1148.18 622.683 1148.71 622.405C1149.24 622.128 1149.65 621.74 1149.93 621.242C1150.21 620.744 1150.35 620.17 1150.35 619.52C1150.35 618.869 1150.21 618.295 1149.93 617.797C1149.66 617.296 1149.26 616.905 1148.74 616.624C1148.21 616.34 1147.58 616.198 1146.84 616.198H1142.97V626ZM1155.07 626H1161.69V624.291H1157.14V621.951H1161.33V620.242H1157.14V617.906H1161.67V616.198H1155.07V626ZM1166.69 626H1168.76V622.525H1170.27L1172.13 626H1174.42L1172.34 622.19C1172.37 622.177 1172.4 622.166 1172.43 622.152C1172.96 621.903 1173.37 621.546 1173.65 621.08C1173.93 620.611 1174.07 620.05 1174.07 619.399C1174.07 618.752 1173.93 618.188 1173.65 617.71C1173.38 617.228 1172.98 616.856 1172.45 616.595C1171.93 616.33 1171.3 616.198 1170.56 616.198H1166.69V626ZM1133.48 617.897C1133.98 617.897 1134.41 618.02 1134.79 618.266C1135.16 618.511 1135.45 618.872 1135.65 619.348C1135.86 619.823 1135.96 620.407 1135.96 621.099C1135.96 621.791 1135.86 622.375 1135.65 622.851C1135.45 623.326 1135.16 623.687 1134.79 623.933C1134.41 624.178 1133.98 624.301 1133.48 624.301C1132.98 624.301 1132.54 624.178 1132.17 623.933C1131.79 623.687 1131.5 623.326 1131.29 622.851C1131.09 622.375 1130.99 621.791 1130.99 621.099C1130.99 620.407 1131.09 619.823 1131.29 619.348C1131.5 618.872 1131.79 618.511 1132.17 618.266C1132.54 618.02 1132.98 617.897 1133.48 617.897ZM1071.95 617.974C1072.56 617.974 1073.07 618.082 1073.49 618.299C1073.91 618.516 1074.22 618.854 1074.44 619.313C1074.65 619.773 1074.76 620.366 1074.76 621.09C1074.76 621.82 1074.65 622.417 1074.44 622.88C1074.22 623.339 1073.91 623.678 1073.49 623.898C1073.07 624.115 1072.55 624.225 1071.94 624.225H1070.62V617.974H1071.95ZM1146.44 617.893C1146.84 617.893 1147.17 617.961 1147.44 618.098C1147.7 618.232 1147.89 618.422 1148.02 618.668C1148.15 618.91 1148.22 619.194 1148.22 619.52C1148.22 619.842 1148.15 620.127 1148.02 620.376C1147.89 620.622 1147.7 620.815 1147.44 620.955C1147.18 621.092 1146.85 621.161 1146.45 621.161H1145.04V617.893H1146.44ZM1170.16 617.893C1170.56 617.893 1170.89 617.951 1171.15 618.069C1171.41 618.184 1171.61 618.353 1171.74 618.576C1171.87 618.799 1171.93 619.074 1171.93 619.399C1171.93 619.722 1171.87 619.992 1171.74 620.209C1171.61 620.426 1171.42 620.589 1171.15 620.697C1170.89 620.806 1170.56 620.859 1170.17 620.859H1168.76V617.893H1170.16Z" fill="white"/>
</svg>
