<svg width="1078" height="1333" viewBox="0 0 1078 1333" fill="none" xmlns="http://www.w3.org/2000/svg">
<path d="M1078 1333H0V0H1078V1333ZM404.786 687.454L420.854 734H433.536L449.582 687.454H438.673L427.4 722.818H426.968L415.718 687.454H404.786ZM458.384 687.454V734H468.225V687.454H458.384ZM493.067 687.454L476.999 734H487.544L490.997 723.387H507.803L511.249 734H521.794L505.749 687.454H493.067ZM530.597 687.454V734H540.438V704.704H540.778L561.028 734H569.528V687.454H559.733V716.728H559.324L539.233 687.454H530.597ZM580.859 687.454V734H590.7V704.704H591.041L611.291 734H619.791V687.454H609.995V716.728H609.586L589.495 687.454H580.859ZM644.667 687.454L628.599 734H639.145L642.597 723.387H659.402L662.849 734H673.395L657.349 687.454H644.667ZM651.189 698.091L656.908 715.704H645.097L650.826 698.091H651.189ZM499.59 698.091L505.309 715.704H493.496L499.227 698.091H499.59ZM475.004 631.818C471.61 631.818 468.58 632.409 465.913 633.591C463.246 634.773 461.147 636.416 459.617 638.522C458.102 640.629 457.352 643.091 457.367 645.909C457.352 649.348 458.481 652.083 460.754 654.113C463.027 656.144 466.126 657.636 470.05 658.591L475.117 659.863C476.814 660.272 478.246 660.728 479.413 661.228C480.595 661.728 481.489 662.334 482.095 663.046C482.716 663.758 483.026 664.636 483.026 665.682C483.026 666.803 482.686 667.796 482.004 668.659C481.322 669.523 480.36 670.197 479.117 670.682C477.89 671.166 476.443 671.409 474.776 671.409C473.08 671.409 471.557 671.152 470.209 670.637C468.876 670.106 467.807 669.326 467.004 668.296C466.216 667.251 465.769 665.947 465.663 664.387H456.141C456.216 667.735 457.027 670.546 458.572 672.818C460.133 675.076 462.3 676.78 465.072 677.932C467.86 679.083 471.133 679.659 474.891 679.659C478.678 679.659 481.913 679.09 484.595 677.954C487.292 676.803 489.352 675.189 490.776 673.113C492.216 671.022 492.944 668.553 492.959 665.704C492.944 663.765 492.587 662.046 491.891 660.546C491.209 659.046 490.246 657.743 489.004 656.637C487.761 655.531 486.292 654.598 484.595 653.841C482.898 653.083 481.034 652.477 479.004 652.022L474.822 651.022C473.807 650.795 472.853 650.522 471.959 650.204C471.065 649.871 470.277 649.485 469.595 649.046C468.913 648.591 468.375 648.053 467.981 647.432C467.603 646.81 467.429 646.083 467.459 645.25C467.459 644.25 467.747 643.356 468.322 642.568C468.913 641.781 469.761 641.167 470.867 640.728C471.973 640.273 473.33 640.046 474.936 640.046C477.299 640.046 479.171 640.553 480.55 641.568C481.928 642.583 482.709 644.008 482.891 645.841H492.322C492.277 643.068 491.534 640.628 490.095 638.522C488.655 636.417 486.64 634.773 484.05 633.591C481.474 632.409 478.458 631.818 475.004 631.818ZM622.542 631.818C618.451 631.818 614.769 632.758 611.496 634.637C608.224 636.5 605.633 639.212 603.724 642.772C601.815 646.333 600.859 650.652 600.859 655.728C600.859 660.788 601.799 665.099 603.678 668.659C605.572 672.22 608.148 674.94 611.405 676.818C614.678 678.697 618.391 679.637 622.542 679.637C625.527 679.637 628.201 679.19 630.564 678.296C632.943 677.387 634.988 676.159 636.7 674.613C638.427 673.053 639.799 671.288 640.814 669.318C641.845 667.334 642.488 665.273 642.746 663.137L632.792 663.091C632.565 664.333 632.155 665.439 631.564 666.409C630.989 667.379 630.262 668.205 629.383 668.887C628.504 669.553 627.496 670.061 626.359 670.409C625.238 670.758 624.018 670.932 622.7 670.932C620.352 670.932 618.284 670.356 616.496 669.204C614.708 668.053 613.314 666.348 612.314 664.091C611.33 661.833 610.837 659.046 610.837 655.728C610.837 652.5 611.33 649.758 612.314 647.5C613.299 645.227 614.686 643.5 616.474 642.318C618.261 641.121 620.36 640.522 622.769 640.522C624.102 640.522 625.337 640.712 626.474 641.091C627.625 641.47 628.64 642.015 629.519 642.728C630.397 643.44 631.117 644.303 631.678 645.318C632.238 646.318 632.61 647.462 632.792 648.75H642.746C642.428 646.053 641.701 643.659 640.564 641.568C639.443 639.477 637.988 637.712 636.2 636.272C634.412 634.818 632.36 633.712 630.042 632.954C627.739 632.197 625.239 631.818 622.542 631.818ZM436.503 632.454V679H446.344V632.454H436.503ZM515.261 632.454L499.192 679H509.738L513.19 668.387H529.996L533.442 679H543.988L527.942 632.454H515.261ZM566.336 632.454L550.268 679H560.813L564.266 668.387H581.071L584.518 679H595.063L579.018 632.454H566.336ZM572.858 643.091L578.577 660.704H566.766L572.495 643.091H572.858ZM521.783 643.091L527.502 660.704H515.69L521.42 643.091H521.783ZM540.907 597.063C540.036 597.063 539.255 597.262 538.562 597.657C537.87 598.05 537.323 598.621 536.921 599.371C536.519 600.121 536.317 601.03 536.317 602.099C536.317 603.164 536.519 604.072 536.921 604.822C537.323 605.572 537.87 606.144 538.562 606.54C539.255 606.936 540.036 607.134 540.907 607.134C541.772 607.134 542.551 606.937 543.243 606.545C543.939 606.149 544.488 605.577 544.89 604.827C545.295 604.077 545.497 603.168 545.497 602.099C545.497 601.03 545.295 600.121 544.89 599.371C544.488 598.621 543.939 598.05 543.243 597.657C542.551 597.262 541.772 597.063 540.907 597.063ZM475.984 607H479.459C480.454 607 481.31 606.804 482.024 606.411C482.742 606.019 483.293 605.455 483.676 604.722C484.062 603.988 484.255 603.111 484.255 602.09C484.255 601.072 484.062 600.197 483.676 599.467C483.293 598.736 482.745 598.175 482.033 597.786C481.322 597.394 480.473 597.198 479.487 597.198H475.984V607ZM489.159 607H495.783V605.291H491.231V602.951H495.424V601.242H491.231V598.906H495.764V597.198H489.159V607ZM503.634 607H506.305L509.684 597.198H507.386L505.012 604.646H504.921L502.552 597.198H500.25L503.634 607ZM514.232 607H520.856V605.291H516.305V602.951H520.498V601.242H516.305V598.906H520.838V597.198H514.232V607ZM525.854 607H532.13V605.291H527.927V597.198H525.854V607ZM550.402 607H552.475V603.822H554.217C554.97 603.822 555.611 603.683 556.141 603.405C556.673 603.128 557.081 602.74 557.361 602.242C557.642 601.745 557.782 601.17 557.782 600.52C557.782 599.869 557.644 599.295 557.366 598.797C557.092 598.296 556.692 597.905 556.169 597.624C555.646 597.34 555.013 597.198 554.27 597.198H550.402V607ZM562.498 607H569.122V605.291H564.57V602.951H568.763V601.242H564.57V598.906H569.103V597.198H562.498V607ZM574.12 607H576.192V603.525H577.705L579.562 607H581.85L579.769 603.19C579.799 603.177 579.829 603.166 579.858 603.152C580.391 602.903 580.798 602.546 581.079 602.08C581.36 601.611 581.5 601.05 581.5 600.399C581.5 599.752 581.362 599.188 581.084 598.71C580.81 598.228 580.409 597.856 579.883 597.595C579.36 597.33 578.727 597.198 577.987 597.198H574.12V607ZM540.907 598.897C541.408 598.897 541.845 599.02 542.219 599.266C542.592 599.511 542.881 599.872 543.085 600.348C543.292 600.823 543.396 601.407 543.396 602.099C543.396 602.791 543.292 603.375 543.085 603.851C542.881 604.326 542.592 604.687 542.219 604.933C541.845 605.178 541.408 605.301 540.907 605.301C540.406 605.301 539.969 605.178 539.596 604.933C539.222 604.687 538.932 604.326 538.725 603.851C538.52 603.375 538.419 602.791 538.419 602.099C538.419 601.407 538.521 600.823 538.725 600.348C538.932 599.872 539.222 599.511 539.596 599.266C539.969 599.02 540.406 598.897 540.907 598.897ZM479.377 598.974C479.989 598.974 480.505 599.082 480.923 599.299C481.341 599.516 481.656 599.854 481.866 600.313C482.08 600.773 482.187 601.366 482.187 602.09C482.186 602.82 482.08 603.417 481.866 603.88C481.656 604.339 481.34 604.678 480.919 604.898C480.501 605.115 479.985 605.225 479.373 605.225H478.057V598.974H479.377ZM553.872 598.893C554.274 598.893 554.606 598.961 554.867 599.098C555.129 599.232 555.324 599.422 555.451 599.668C555.582 599.91 555.647 600.194 555.647 600.52C555.647 600.842 555.582 601.127 555.451 601.376C555.324 601.622 555.129 601.815 554.867 601.955C554.609 602.092 554.28 602.161 553.882 602.161H552.475V598.893H553.872ZM577.59 598.893C577.989 598.893 578.319 598.951 578.581 599.069C578.845 599.184 579.041 599.353 579.169 599.576C579.3 599.799 579.365 600.074 579.365 600.399C579.365 600.722 579.3 600.992 579.169 601.209C579.041 601.426 578.846 601.589 578.585 601.697C578.323 601.806 577.995 601.859 577.6 601.859H576.192V598.893H577.59Z" fill="white"/>
</svg>
